<svg width="22" height="22" viewBox="0 0 22 22" fill="none" xmlns="http://www.w3.org/2000/svg">
<path d="M9.16667 15.125L11 12.375M11 12.375L12.8333 15.125M11 12.375V10.5417M11 10.5417L13.75 9.625M11 10.5417L8.25 9.625M19.25 11C19.25 15.5563 15.5563 19.25 11 19.25C6.44365 19.25 2.75 15.5563 2.75 11C2.75 6.44365 6.44365 2.75 11 2.75C15.5563 2.75 19.25 6.44365 19.25 11ZM11.4583 6.875C11.4583 7.12813 11.2531 7.33333 11 7.33333C10.7469 7.33333 10.5417 7.12813 10.5417 6.875C10.5417 6.62187 10.7469 6.41667 11 6.41667C11.2531 6.41667 11.4583 6.62187 11.4583 6.875Z" stroke="#0F172A" stroke-width="1.5" stroke-linecap="round" stroke-linejoin="round"/>
</svg>
