<svg width="20" height="20" viewBox="0 0 20 20" fill="none" xmlns="http://www.w3.org/2000/svg">
<path d="M15 8.33333V12.5C15 13.8261 14.4732 15.0979 13.5355 16.0355C12.5979 16.9732 11.3261 17.5 10 17.5C8.67392 17.5 7.40215 16.9732 6.46447 16.0355C5.52678 15.0979 5 13.8261 5 12.5V5.83333C5 4.94928 5.35119 4.10143 5.97631 3.47631C6.60143 2.85119 7.44928 2.5 8.33333 2.5V2.5C9.21739 2.5 10.0652 2.85119 10.6904 3.47631C11.3155 4.10143 11.6667 4.94928 11.6667 5.83333V12.5C11.6667 12.942 11.4911 13.366 11.1785 13.6785C10.866 13.9911 10.442 14.1667 10 14.1667C9.55797 14.1667 9.13405 13.9911 8.82149 13.6785C8.50893 13.366 8.33333 12.942 8.33333 12.5V5.83333" stroke="white" stroke-width="1.5" stroke-linecap="round" stroke-linejoin="round"/>
</svg>
