<svg width="32" height="32" viewBox="0 0 32 32" fill="none" xmlns="http://www.w3.org/2000/svg">
<circle cx="16" cy="16" r="16" fill="#0062FF"/>
<path d="M20.3904 19.908L23.5468 21.6219C22.7775 22.6966 21.7989 23.5564 20.611 24.2013C19.4345 24.8461 18.1561 25.1686 16.7759 25.1686C15.2147 25.1686 13.7892 24.767 12.4995 23.9637C11.2211 23.1605 10.1973 22.0857 9.42799 20.7395C8.67001 19.3819 8.29102 17.8829 8.29102 16.2425C8.29102 14.9981 8.51162 13.8385 8.95283 12.7637C9.39405 11.6777 9.9993 10.7274 10.7686 9.91281C11.5492 9.08695 12.4542 8.4421 13.4837 7.97827C14.5132 7.51443 15.6106 7.28251 16.7759 7.28251C18.1561 7.28251 19.4345 7.60493 20.611 8.24978C21.7989 8.89463 22.7775 9.76008 23.5468 10.8461L20.3904 12.5601C19.9153 11.9944 19.3609 11.5645 18.7274 11.2704C18.0938 10.9649 17.4433 10.8122 16.7759 10.8122C15.8482 10.8122 15.0054 11.0668 14.2474 11.5758C13.5007 12.0736 12.9068 12.7354 12.4656 13.5613C12.0357 14.3758 11.8207 15.2696 11.8207 16.2425C11.8207 17.2041 12.0413 18.0979 12.4825 18.9237C12.9237 19.7383 13.5177 20.3944 14.2643 20.8922C15.0223 21.39 15.8595 21.6389 16.7759 21.6389C17.4773 21.6389 18.1448 21.4805 18.7783 21.1637C19.4118 20.847 19.9492 20.4284 20.3904 19.908Z" fill="white"/>
</svg>
