<svg width="28" height="28" viewBox="0 0 28 28" fill="none" xmlns="http://www.w3.org/2000/svg">
<path d="M12.5612 1.22428C13.3906 0.51855 14.6094 0.51855 15.4388 1.22428C16.0249 1.723 16.8274 1.88263 17.5598 1.64617C18.5961 1.31155 19.7221 1.77797 20.2183 2.74738C20.569 3.43242 21.2493 3.88703 22.0164 3.94882C23.1019 4.03626 23.9637 4.89809 24.0512 5.98358C24.113 6.75066 24.5676 7.43104 25.2526 7.78167C26.222 8.27785 26.6884 9.40389 26.3538 10.4402C26.1174 11.1726 26.277 11.9751 26.7757 12.5612C27.4814 13.3906 27.4814 14.6094 26.7757 15.4388C26.277 16.0249 26.1174 16.8274 26.3538 17.5598C26.6884 18.5961 26.222 19.7221 25.2526 20.2183C24.5676 20.569 24.113 21.2493 24.0512 22.0164C23.9637 23.1019 23.1019 23.9637 22.0164 24.0512C21.2493 24.113 20.569 24.5676 20.2183 25.2526C19.7221 26.222 18.5961 26.6884 17.5598 26.3538C16.8274 26.1174 16.0249 26.277 15.4388 26.7757C14.6094 27.4814 13.3906 27.4814 12.5612 26.7757C11.9751 26.277 11.1726 26.1174 10.4402 26.3538C9.40389 26.6884 8.27785 26.222 7.78167 25.2526C7.43104 24.5676 6.75066 24.113 5.98358 24.0512C4.89809 23.9637 4.03626 23.1019 3.94882 22.0164C3.88703 21.2493 3.43242 20.569 2.74738 20.2183C1.77797 19.7221 1.31155 18.5961 1.64617 17.5598C1.88263 16.8274 1.723 16.0249 1.22428 15.4388C0.51855 14.6094 0.51855 13.3906 1.22428 12.5612C1.723 11.9751 1.88263 11.1726 1.64617 10.4402C1.31155 9.40389 1.77797 8.27785 2.74738 7.78167C3.43242 7.43104 3.88703 6.75066 3.94882 5.98358C4.03626 4.89809 4.89809 4.03626 5.98358 3.94882C6.75066 3.88703 7.43104 3.43242 7.78167 2.74738C8.27785 1.77797 9.40389 1.31155 10.4402 1.64617C11.1726 1.88263 11.9751 1.723 12.5612 1.22428Z" fill="#59C3FF"/>
<circle cx="14" cy="14" r="9" fill="#0062FF"/>
<path d="M14 5C16.3869 5 18.6761 5.94821 20.364 7.63604C22.0518 9.32387 23 11.6131 23 14C23 16.3869 22.0518 18.6761 20.364 20.364C18.6761 22.0518 16.3869 23 14 23L14 14L14 5Z" fill="#0055DD"/>
<path d="M17.592 10H10.4655L9 13H19L17.592 10Z" fill="white"/>
<path d="M17.592 10H14V13H19L17.592 10Z" fill="#B2F5FF"/>
<path d="M19 13H9L14 19L19 13Z" fill="#B2F5FF"/>
<path d="M19 13H14V19L19 13Z" fill="#18E0FF"/>
</svg>
