<svg width="16" height="16" viewBox="0 0 16 16" fill="none" xmlns="http://www.w3.org/2000/svg">
<path d="M2 6V5.25H1.25V6H2ZM14 6H14.75V5.25H14V6ZM2 6.75H14V5.25H2V6.75ZM13.25 6V10.3636H14.75V6H13.25ZM13.25 10.3636C13.25 10.3648 13.25 10.3659 13.25 10.3671C13.25 10.3682 13.25 10.3694 13.25 10.3705C13.25 10.3717 13.25 10.3728 13.25 10.374C13.25 10.3751 13.25 10.3763 13.25 10.3774C13.25 10.3786 13.25 10.3797 13.25 10.3809C13.25 10.382 13.25 10.3832 13.25 10.3843C13.25 10.3855 13.25 10.3866 13.25 10.3878C13.25 10.3889 13.25 10.3901 13.25 10.3912C13.25 10.3924 13.25 10.3935 13.25 10.3947C13.25 10.3958 13.25 10.397 13.25 10.3981C13.25 10.3992 13.25 10.4004 13.25 10.4015C13.25 10.4027 13.25 10.4038 13.25 10.405C13.25 10.4061 13.25 10.4073 13.25 10.4084C13.25 10.4096 13.25 10.4107 13.25 10.4119C13.25 10.413 13.25 10.4142 13.25 10.4153C13.25 10.4164 13.25 10.4176 13.25 10.4187C13.25 10.4199 13.25 10.421 13.25 10.4222C13.25 10.4233 13.25 10.4245 13.25 10.4256C13.25 10.4268 13.25 10.4279 13.25 10.429C13.25 10.4302 13.25 10.4313 13.25 10.4325C13.25 10.4336 13.25 10.4348 13.25 10.4359C13.25 10.4371 13.25 10.4382 13.25 10.4394C13.25 10.4405 13.25 10.4416 13.25 10.4428C13.25 10.4439 13.25 10.4451 13.25 10.4462C13.25 10.4474 13.25 10.4485 13.25 10.4496C13.25 10.4508 13.25 10.4519 13.25 10.4531C13.25 10.4542 13.25 10.4554 13.25 10.4565C13.25 10.4577 13.25 10.4588 13.25 10.4599C13.25 10.4611 13.25 10.4622 13.25 10.4634C13.25 10.4645 13.25 10.4657 13.25 10.4668C13.25 10.4679 13.25 10.4691 13.25 10.4702C13.25 10.4714 13.25 10.4725 13.25 10.4736C13.25 10.4748 13.25 10.4759 13.25 10.4771C13.25 10.4782 13.25 10.4794 13.25 10.4805C13.25 10.4816 13.25 10.4828 13.25 10.4839C13.25 10.4851 13.25 10.4862 13.25 10.4873C13.25 10.4885 13.25 10.4896 13.25 10.4908C13.25 10.4919 13.25 10.493 13.25 10.4942C13.25 10.4953 13.25 10.4965 13.25 10.4976C13.25 10.4987 13.25 10.4999 13.25 10.501C13.25 10.5022 13.25 10.5033 13.25 10.5044C13.25 10.5056 13.25 10.5067 13.25 10.5079C13.25 10.509 13.25 10.5101 13.25 10.5113C13.25 10.5124 13.25 10.5136 13.25 10.5147C13.25 10.5158 13.25 10.517 13.25 10.5181C13.25 10.5192 13.25 10.5204 13.25 10.5215C13.25 10.5227 13.25 10.5238 13.25 10.5249C13.25 10.5261 13.25 10.5272 13.25 10.5283C13.25 10.5295 13.25 10.5306 13.25 10.5318C13.25 10.5329 13.25 10.534 13.25 10.5352C13.25 10.5363 13.25 10.5374 13.25 10.5386C13.25 10.5397 13.25 10.5409 13.25 10.542C13.25 10.5431 13.25 10.5443 13.25 10.5454C13.25 10.5465 13.25 10.5477 13.25 10.5488C13.25 10.5499 13.25 10.5511 13.25 10.5522C13.25 10.5533 13.25 10.5545 13.25 10.5556C13.25 10.5568 13.25 10.5579 13.25 10.559C13.25 10.5602 13.25 10.5613 13.25 10.5624C13.25 10.5636 13.25 10.5647 13.25 10.5658C13.25 10.567 13.25 10.5681 13.25 10.5692C13.25 10.5704 13.25 10.5715 13.25 10.5726C13.25 10.5738 13.25 10.5749 13.25 10.576C13.25 10.5772 13.25 10.5783 13.25 10.5794C13.25 10.5806 13.25 10.5817 13.25 10.5828C13.25 10.584 13.25 10.5851 13.25 10.5862C13.25 10.5874 13.25 10.5885 13.25 10.5896C13.25 10.5908 13.25 10.5919 13.25 10.593C13.25 10.5942 13.25 10.5953 13.25 10.5964C13.25 10.5976 13.25 10.5987 13.25 10.5998C13.25 10.601 13.25 10.6021 13.25 10.6032C13.25 10.6044 13.25 10.6055 13.25 10.6066C13.25 10.6077 13.25 10.6089 13.25 10.61C13.25 10.6111 13.25 10.6123 13.25 10.6134C13.25 10.6145 13.25 10.6157 13.25 10.6168C13.25 10.6179 13.25 10.6191 13.25 10.6202C13.25 10.6213 13.25 10.6224 13.25 10.6236C13.25 10.6247 13.25 10.6258 13.25 10.627C13.25 10.6281 13.25 10.6292 13.25 10.6303C13.25 10.6315 13.25 10.6326 13.25 10.6337C13.25 10.6349 13.25 10.636 13.25 10.6371C13.25 10.6382 13.25 10.6394 13.25 10.6405C13.25 10.6416 13.25 10.6428 13.25 10.6439C13.25 10.645 13.25 10.6461 13.25 10.6473C13.25 10.6484 13.25 10.6495 13.25 10.6507C13.25 10.6518 13.25 10.6529 13.25 10.654C13.25 10.6552 13.25 10.6563 13.25 10.6574C13.25 10.6585 13.25 10.6597 13.25 10.6608C13.25 10.6619 13.25 10.6631 13.25 10.6642C13.25 10.6653 13.25 10.6664 13.25 10.6676C13.25 10.6687 13.25 10.6698 13.25 10.6709C13.25 10.6721 13.25 10.6732 13.25 10.6743C13.25 10.6754 13.25 10.6766 13.25 10.6777C13.25 10.6788 13.25 10.6799 13.25 10.6811C13.25 10.6822 13.25 10.6833 13.25 10.6844C13.25 10.6856 13.25 10.6867 13.25 10.6878C13.25 10.6889 13.25 10.6901 13.25 10.6912C13.25 10.6923 13.25 10.6934 13.25 10.6945C13.25 10.6957 13.25 10.6968 13.25 10.6979C13.25 10.699 13.25 10.7002 13.25 10.7013C13.25 10.7024 13.25 10.7035 13.25 10.7047C13.25 10.7058 13.25 10.7069 13.25 10.708C13.25 10.7091 13.25 10.7103 13.25 10.7114C13.25 10.7125 13.25 10.7136 13.25 10.7148C13.25 10.7159 13.25 10.717 13.25 10.7181C13.25 10.7192 13.25 10.7204 13.25 10.7215C13.25 10.7226 13.25 10.7237 13.25 10.7249C13.25 10.726 13.25 10.7271 13.25 10.7282C13.25 10.7293 13.25 10.7305 13.25 10.7316C13.25 10.7327 13.25 10.7338 13.25 10.7349C13.25 10.7361 13.25 10.7372 13.25 10.7383C13.25 10.7394 13.25 10.7405 13.25 10.7417C13.25 10.7428 13.25 10.7439 13.25 10.745C13.25 10.7461 13.25 10.7472 13.25 10.7484C13.25 10.7495 13.25 10.7506 13.25 10.7517C13.25 10.7528 13.25 10.754 13.25 10.7551C13.25 10.7562 13.25 10.7573 13.25 10.7584C13.25 10.7596 13.25 10.7607 13.25 10.7618C13.25 10.7629 13.25 10.764 13.25 10.7651C13.25 10.7663 13.25 10.7674 13.25 10.7685C13.25 10.7696 13.25 10.7707 13.25 10.7718C13.25 10.773 13.25 10.7741 13.25 10.7752C13.25 10.7763 13.25 10.7774 13.25 10.7785C13.25 10.7797 13.25 10.7808 13.25 10.7819C13.25 10.783 13.25 10.7841 13.25 10.7852C13.25 10.7863 13.25 10.7875 13.25 10.7886C13.25 10.7897 13.25 10.7908 13.25 10.7919C13.25 10.793 13.25 10.7942 13.25 10.7953C13.25 10.7964 13.25 10.7975 13.25 10.7986C13.25 10.7997 13.25 10.8008 13.25 10.802C13.25 10.8031 13.25 10.8042 13.25 10.8053C13.25 10.8064 13.25 10.8075 13.25 10.8086C13.25 10.8097 13.25 10.8109 13.25 10.812C13.25 10.8131 13.25 10.8142 13.25 10.8153C13.25 10.8164 13.25 10.8175 13.25 10.8187C13.25 10.8198 13.25 10.8209 13.25 10.822C13.25 10.8231 13.25 10.8242 13.25 10.8253C13.25 10.8264 13.25 10.8275 13.25 10.8287C13.25 10.8298 13.25 10.8309 13.25 10.832C13.25 10.8331 13.25 10.8342 13.25 10.8353C13.25 10.8364 13.25 10.8375 13.25 10.8387C13.25 10.8398 13.25 10.8409 13.25 10.842C13.25 10.8431 13.25 10.8442 13.25 10.8453C13.25 10.8464 13.25 10.8475 13.25 10.8486C13.25 10.8498 13.25 10.8509 13.25 10.852C13.25 10.8531 13.25 10.8542 13.25 10.8553C13.25 10.8564 13.25 10.8575 13.25 10.8586C13.25 10.8597 13.25 10.8608 13.25 10.862C13.25 10.8631 13.25 10.8642 13.25 10.8653C13.25 10.8664 13.25 10.8675 13.25 10.8686C13.25 10.8697 13.25 10.8708 13.25 10.8719C13.25 10.873 13.25 10.8741 13.25 10.8752C13.25 10.8764 13.25 10.8775 13.25 10.8786C13.25 10.8797 13.25 10.8808 13.25 10.8819C13.25 10.883 13.25 10.8841 13.25 10.8852C13.25 10.8863 13.25 10.8874 13.25 10.8885C13.25 10.8896 13.25 10.8907 13.25 10.8918C13.25 10.8929 13.25 10.894 13.25 10.8952C13.25 10.8963 13.25 10.8974 13.25 10.8985C13.25 10.8996 13.25 10.9007 13.25 10.9018C13.25 10.9029 13.25 10.904 13.25 10.9051C13.25 10.9062 13.25 10.9073 13.25 10.9084C13.25 10.9095 13.25 10.9106 13.25 10.9117C13.25 10.9128 13.25 10.9139 13.25 10.915C13.25 10.9161 13.25 10.9172 13.25 10.9183C13.25 10.9194 13.25 10.9205 13.25 10.9216C13.25 10.9227 13.25 10.9238 13.25 10.925C13.25 10.9261 13.25 10.9272 13.25 10.9283C13.25 10.9294 13.25 10.9305 13.25 10.9316C13.25 10.9327 13.25 10.9338 13.25 10.9349C13.25 10.936 13.25 10.9371 13.25 10.9382C13.25 10.9393 13.25 10.9404 13.25 10.9415C13.25 10.9426 13.25 10.9437 13.25 10.9448C13.25 10.9459 13.25 10.947 13.25 10.9481C13.25 10.9492 13.25 10.9503 13.25 10.9514C13.25 10.9525 13.25 10.9536 13.25 10.9547C13.25 10.9558 13.25 10.9569 13.25 10.958C13.25 10.9591 13.25 10.9602 13.25 10.9613C13.25 10.9624 13.25 10.9635 13.25 10.9646C13.25 10.9657 13.25 10.9668 13.25 10.9679C13.25 10.9689 13.25 10.97 13.25 10.9711C13.25 10.9722 13.25 10.9733 13.25 10.9744C13.25 10.9755 13.25 10.9766 13.25 10.9777C13.25 10.9788 13.25 10.9799 13.25 10.981C13.25 10.9821 13.25 10.9832 13.25 10.9843C13.25 10.9854 13.25 10.9865 13.25 10.9876C13.25 10.9887 13.25 10.9898 13.25 10.9909C13.25 10.992 13.25 10.9931 13.25 10.9942C13.25 10.9953 13.25 10.9964 13.25 10.9975C13.25 10.9985 13.25 10.9996 13.25 11.0007C13.25 11.0018 13.25 11.0029 13.25 11.004C13.25 11.0051 13.25 11.0062 13.25 11.0073C13.25 11.0084 13.25 11.0095 13.25 11.0106C13.25 11.0117 13.25 11.0128 13.25 11.0139C13.25 11.015 13.25 11.016 13.25 11.0171C13.25 11.0182 13.25 11.0193 13.25 11.0204C13.25 11.0215 13.25 11.0226 13.25 11.0237C13.25 11.0248 13.25 11.0259 13.25 11.027C13.25 11.0281 13.25 11.0292 13.25 11.0302C13.25 11.0313 13.25 11.0324 13.25 11.0335C13.25 11.0346 13.25 11.0357 13.25 11.0368C13.25 11.0379 13.25 11.039 13.25 11.0401C13.25 11.0412 13.25 11.0422 13.25 11.0433C13.25 11.0444 13.25 11.0455 13.25 11.0466C13.25 11.0477 13.25 11.0488 13.25 11.0499C13.25 11.051 13.25 11.0521 13.25 11.0531C13.25 11.0542 13.25 11.0553 13.25 11.0564C13.25 11.0575 13.25 11.0586 13.25 11.0597C13.25 11.0608 13.25 11.0618 13.25 11.0629C13.25 11.064 13.25 11.0651 13.25 11.0662C13.25 11.0673 13.25 11.0684 13.25 11.0695C13.25 11.0706 13.25 11.0716 13.25 11.0727C13.25 11.0738 13.25 11.0749 13.25 11.076C13.25 11.0771 13.25 11.0782 13.25 11.0792C13.25 11.0803 13.25 11.0814 13.25 11.0825C13.25 11.0836 13.25 11.0847 13.25 11.0858C13.25 11.0868 13.25 11.0879 13.25 11.089C13.25 11.0901 13.25 11.0912 13.25 11.0923C13.25 11.0934 13.25 11.0944 13.25 11.0955C13.25 11.0966 13.25 11.0977 13.25 11.0988C13.25 11.0999 13.25 11.1009 13.25 11.102C13.25 11.1031 13.25 11.1042 13.25 11.1053C13.25 11.1064 13.25 11.1074 13.25 11.1085C13.25 11.1096 13.25 11.1107 13.25 11.1118C13.25 11.1129 13.25 11.1139 13.25 11.115C13.25 11.1161 13.25 11.1172 13.25 11.1183C13.25 11.1194 13.25 11.1204 13.25 11.1215C13.25 11.1226 13.25 11.1237 13.25 11.1248C13.25 11.1258 13.25 11.1269 13.25 11.128C13.25 11.1291 13.25 11.1302 13.25 11.1312C13.25 11.1323 13.25 11.1334 13.25 11.1345C13.25 11.1356 13.25 11.1367 13.25 11.1377C13.25 11.1388 13.25 11.1399 13.25 11.141C13.25 11.142 13.25 11.1431 13.25 11.1442C13.25 11.1453 13.25 11.1464 13.25 11.1474C13.25 11.1485 13.25 11.1496 13.25 11.1507C13.25 11.1518 13.25 11.1528 13.25 11.1539C13.25 11.155 13.25 11.1561 13.25 11.1571C13.25 11.1582 13.25 11.1593 13.25 11.1604C13.25 11.1615 13.25 11.1625 13.25 11.1636C13.25 11.1647 13.25 11.1658 13.25 11.1668C13.25 11.1679 13.25 11.169 13.25 11.1701C13.25 11.1711 13.25 11.1722 13.25 11.1733C13.25 11.1744 13.25 11.1755 13.25 11.1765C13.25 11.1776 13.25 11.1787 13.25 11.1798C13.25 11.1808 13.25 11.1819 13.25 11.183C13.25 11.1841 13.25 11.1851 13.25 11.1862C13.25 11.1873 13.25 11.1884 13.25 11.1894C13.25 11.1905 13.25 11.1916 13.25 11.1926C13.25 11.1937 13.25 11.1948 13.25 11.1959C13.25 11.1969 13.25 11.198 13.25 11.1991C13.25 11.2002 13.25 11.2012 13.25 11.2023C13.25 11.2034 13.25 11.2045 13.25 11.2055C13.25 11.2066 13.25 11.2077 13.25 11.2087C13.25 11.2098 13.25 11.2109 13.25 11.212C13.25 11.213 13.25 11.2141 13.25 11.2152C13.25 11.2162 13.25 11.2173 13.25 11.2184C13.25 11.2195 13.25 11.2205 13.25 11.2216C13.25 11.2227 13.25 11.2237 13.25 11.2248C13.25 11.2259 13.25 11.2269 13.25 11.228C13.25 11.2291 13.25 11.2302 13.25 11.2312C13.25 11.2323 13.25 11.2334 13.25 11.2344C13.25 11.2355 13.25 11.2366 13.25 11.2376C13.25 11.2387 13.25 11.2398 13.25 11.2408C13.25 11.2419 13.25 11.243 13.25 11.244C13.25 11.2451 13.25 11.2462 13.25 11.2472C13.25 11.2483 13.25 11.2494 13.25 11.2505C13.25 11.2515 13.25 11.2526 13.25 11.2537C13.25 11.2547 13.25 11.2558 13.25 11.2569C13.25 11.2579 13.25 11.259 13.25 11.26C13.25 11.2611 13.25 11.2622 13.25 11.2632C13.25 11.2643 13.25 11.2654 13.25 11.2664C13.25 11.2675 13.25 11.2686 13.25 11.2696C13.25 11.2707 13.25 11.2718 13.25 11.2728C13.25 11.2739 13.25 11.275 13.25 11.276C13.25 11.2771 13.25 11.2782 13.25 11.2792C13.25 11.2803 13.25 11.2813 13.25 11.2824C13.25 11.2835 13.25 11.2845 13.25 11.2856C13.25 11.2867 13.25 11.2877 13.25 11.2888C13.25 11.2898 13.25 11.2909 13.25 11.292C13.25 11.293 13.25 11.2941 13.25 11.2952C13.25 11.2962 13.25 11.2973 13.25 11.2983C13.25 11.2994 13.25 11.3005 13.25 11.3015C13.25 11.3026 13.25 11.3036 13.25 11.3047C13.25 11.3058 13.25 11.3068 13.25 11.3079C13.25 11.3089 13.25 11.31 13.25 11.3111C13.25 11.3121 13.25 11.3132 13.25 11.3142C13.25 11.3153 13.25 11.3164 13.25 11.3174C13.25 11.3185 13.25 11.3195 13.25 11.3206C13.25 11.3217 13.25 11.3227 13.25 11.3238C13.25 11.3248 13.25 11.3259 13.25 11.327C13.25 11.328 13.25 11.3291 13.25 11.3301C13.25 11.3312 13.25 11.3322 13.25 11.3333C13.25 11.3344 13.25 11.3354 13.25 11.3365C13.25 11.3375 13.25 11.3386 13.25 11.3396C13.25 11.3407 13.25 11.3418 13.25 11.3428C13.25 11.3439 13.25 11.3449 13.25 11.346C13.25 11.347 13.25 11.3481 13.25 11.3491C13.25 11.3502 13.25 11.3513 13.25 11.3523C13.25 11.3534 13.25 11.3544 13.25 11.3555C13.25 11.3565 13.25 11.3576 13.25 11.3586C13.25 11.3597 13.25 11.3607 13.25 11.3618C13.25 11.3629 13.25 11.3639 13.25 11.365C13.25 11.366 13.25 11.3671 13.25 11.3681C13.25 11.3692 13.25 11.3702 13.25 11.3713C13.25 11.3723 13.25 11.3734 13.25 11.3744C13.25 11.3755 13.25 11.3765 13.25 11.3776C13.25 11.3786 13.25 11.3797 13.25 11.3807C13.25 11.3818 13.25 11.3828 13.25 11.3839C13.25 11.3849 13.25 11.386 13.25 11.387C13.25 11.3881 13.25 11.3891 13.25 11.3902C13.25 11.3912 13.25 11.3923 13.25 11.3933C13.25 11.3944 13.25 11.3954 13.25 11.3965C13.25 11.3975 13.25 11.3986 13.25 11.3996C13.25 11.4007 13.25 11.4017 13.25 11.4028C13.25 11.4038 13.25 11.4049 13.25 11.4059C13.25 11.407 13.25 11.408 13.25 11.4091C13.25 11.4101 13.25 11.4112 13.25 11.4122C13.25 11.4133 13.25 11.4143 13.25 11.4154C13.25 11.4164 13.25 11.4175 13.25 11.4185C13.25 11.4196 13.25 11.4206 13.25 11.4216C13.25 11.4227 13.25 11.4237 13.25 11.4248C13.25 11.4258 13.25 11.4269 13.25 11.4279C13.25 11.429 13.25 11.43 13.25 11.4311C13.25 11.4321 13.25 11.4331 13.25 11.4342C13.25 11.4352 13.25 11.4363 13.25 11.4373C13.25 11.4384 13.25 11.4394 13.25 11.4405C13.25 11.4415 13.25 11.4425 13.25 11.4436C13.25 11.4446 13.25 11.4457 13.25 11.4467C13.25 11.4478 13.25 11.4488 13.25 11.4498C13.25 11.4509 13.25 11.4519 13.25 11.453C13.25 11.454 13.25 11.4551 13.25 11.4561C13.25 11.4571 13.25 11.4582 13.25 11.4592C13.25 11.4603 13.25 11.4613 13.25 11.4623C13.25 11.4634 13.25 11.4644 13.25 11.4655C13.25 11.4665 13.25 11.4675 13.25 11.4686C13.25 11.4696 13.25 11.4707 13.25 11.4717C13.25 11.4727 13.25 11.4738 13.25 11.4748C13.25 11.4759 13.25 11.4769 13.25 11.4779C13.25 11.479 13.25 11.48 13.25 11.4811C13.25 11.4821 13.25 11.4831 13.25 11.4842C13.25 11.4852 13.25 11.4863 13.25 11.4873C13.25 11.4883 13.25 11.4894 13.25 11.4904C13.25 11.4914 13.25 11.4925 13.25 11.4935C13.25 11.4945 13.25 11.4956 13.25 11.4966C13.25 11.4977 13.25 11.4987 13.25 11.4997C13.25 11.5008 13.25 11.5018 13.25 11.5028C13.25 11.5039 13.25 11.5049 13.25 11.5059C13.25 11.507 13.25 11.508 13.25 11.5091C13.25 11.5101 13.25 11.5111 13.25 11.5122C13.25 11.5132 13.25 11.5142 13.25 11.5153C13.25 11.5163 13.25 11.5173 13.25 11.5184C13.25 11.5194 13.25 11.5204 13.25 11.5215C13.25 11.5225 13.25 11.5235 13.25 11.5246C13.25 11.5256 13.25 11.5266 13.25 11.5277C13.25 11.5287 13.25 11.5297 13.25 11.5308C13.25 11.5318 13.25 11.5328 13.25 11.5338C13.25 11.5349 13.25 11.5359 13.25 11.5369C13.25 11.538 13.25 11.539 13.25 11.54C13.25 11.5411 13.25 11.5421 13.25 11.5431C13.25 11.5442 13.25 11.5452 13.25 11.5462C13.25 11.5472 13.25 11.5483 13.25 11.5493C13.25 11.5503 13.25 11.5514 13.25 11.5524C13.25 11.5534 13.25 11.5545 13.25 11.5555C13.25 11.5565 13.25 11.5575 13.25 11.5586C13.25 11.5596 13.25 11.5606 13.25 11.5616C13.25 11.5627 13.25 11.5637 13.25 11.5647C13.25 11.5658 13.25 11.5668 13.25 11.5678C13.25 11.5688 13.25 11.5699 13.25 11.5709C13.25 11.5719 13.25 11.5729 13.25 11.574C13.25 11.575 13.25 11.576 13.25 11.577C13.25 11.5781 13.25 11.5791 13.25 11.5801C13.25 11.5812 13.25 11.5822 13.25 11.5832C13.25 11.5842 13.25 11.5852 13.25 11.5863C13.25 11.5873 13.25 11.5883 13.25 11.5893C13.25 11.5904 13.25 11.5914 13.25 11.5924C13.25 11.5934 13.25 11.5945 13.25 11.5955C13.25 11.5965 13.25 11.5975 13.25 11.5986C13.25 11.5996 13.25 11.6006 13.25 11.6016C13.25 11.6026 13.25 11.6037 13.25 11.6047C13.25 11.6057 13.25 11.6067 13.25 11.6078C13.25 11.6088 13.25 11.6098 13.25 11.6108C13.25 11.6118 13.25 11.6129 13.25 11.6139C13.25 11.6149 13.25 11.6159 13.25 11.6169C13.25 11.618 13.25 11.619 13.25 11.62C13.25 11.621 13.25 11.622 13.25 11.6231C13.25 11.6241 13.25 11.6251 13.25 11.6261C13.25 11.6271 13.25 11.6282 13.25 11.6292C13.25 11.6302 13.25 11.6312 13.25 11.6322C13.25 11.6332 13.25 11.6343 13.25 11.6353C13.25 11.6363 13.25 11.6373 13.25 11.6383C13.25 11.6393 13.25 11.6404 13.25 11.6414C13.25 11.6424 13.25 11.6434 13.25 11.6444C13.25 11.6454 13.25 11.6465 13.25 11.6475C13.25 11.6485 13.25 11.6495 13.25 11.6505C13.25 11.6515 13.25 11.6526 13.25 11.6536C13.25 11.6546 13.25 11.6556 13.25 11.6566C13.25 11.6576 13.25 11.6586 13.25 11.6597C13.25 11.6607 13.25 11.6617 13.25 11.6627C13.25 11.6637 13.25 11.6647 13.25 11.6657C13.25 11.6668 13.25 11.6678 13.25 11.6688C13.25 11.6698 13.25 11.6708 13.25 11.6718C13.25 11.6728 13.25 11.6738 13.25 11.6749C13.25 11.6759 13.25 11.6769 13.25 11.6779C13.25 11.6789 13.25 11.6799 13.25 11.6809C13.25 11.6819 13.25 11.6829 13.25 11.684C13.25 11.685 13.25 11.686 13.25 11.687C13.25 11.688 13.25 11.689 13.25 11.69C13.25 11.691 13.25 11.692 13.25 11.693C13.25 11.6941 13.25 11.6951 13.25 11.6961C13.25 11.6971 13.25 11.6981 13.25 11.6991C13.25 11.7001 13.25 11.7011 13.25 11.7021C13.25 11.7031 13.25 11.7041 13.25 11.7051C13.25 11.7062 13.25 11.7072 13.25 11.7082C13.25 11.7092 13.25 11.7102 13.25 11.7112C13.25 11.7122 13.25 11.7132 13.25 11.7142C13.25 11.7152 13.25 11.7162 13.25 11.7172C13.25 11.7182 13.25 11.7192 13.25 11.7202C13.25 11.7212 13.25 11.7223 13.25 11.7233C13.25 11.7243 13.25 11.7253 13.25 11.7263C13.25 11.7273 13.25 11.7283 13.25 11.7293C13.25 11.7303 13.25 11.7313 13.25 11.7323C13.25 11.7333 13.25 11.7343 13.25 11.7353C13.25 11.7363 13.25 11.7373 13.25 11.7383C13.25 11.7393 13.25 11.7403 13.25 11.7413C13.25 11.7423 13.25 11.7433 13.25 11.7443C13.25 11.7453 13.25 11.7463 13.25 11.7473C13.25 11.7483 13.25 11.7493 13.25 11.7503C13.25 11.7513 13.25 11.7523 13.25 11.7533C13.25 11.7543 13.25 11.7553 13.25 11.7563C13.25 11.7573 13.25 11.7583 13.25 11.7593C13.25 11.7603 13.25 11.7613 13.25 11.7623C13.25 11.7633 13.25 11.7643 13.25 11.7653C13.25 11.7663 13.25 11.7673 13.25 11.7683C13.25 11.7693 13.25 11.7703 13.25 11.7713C13.25 11.7723 13.25 11.7733 13.25 11.7743C13.25 11.7753 13.25 11.7763 13.25 11.7773C13.25 11.7783 13.25 11.7793 13.25 11.7803C13.25 11.7813 13.25 11.7823 13.25 11.7833C13.25 11.7843 13.25 11.7853 13.25 11.7863C13.25 11.7873 13.25 11.7883 13.25 11.7892C13.25 11.7902 13.25 11.7912 13.25 11.7922C13.25 11.7932 13.25 11.7942 13.25 11.7952C13.25 11.7962 13.25 11.7972 13.25 11.7982C13.25 11.7992 13.25 11.8002 13.25 11.8012C13.25 11.8022 13.25 11.8032 13.25 11.8042C13.25 11.8051 13.25 11.8061 13.25 11.8071C13.25 11.8081 13.25 11.8091 13.25 11.8101C13.25 11.8111 13.25 11.8121 13.25 11.8131C13.25 11.8141 13.25 11.8151 13.25 11.8161C13.25 11.817 13.25 11.818 13.25 11.819C13.25 11.82 13.25 11.821 13.25 11.822C13.25 11.823 13.25 11.824 13.25 11.825C13.25 11.826 13.25 11.8269 13.25 11.8279C13.25 11.8289 13.25 11.8299 13.25 11.8309C13.25 11.8319 13.25 11.8329 13.25 11.8339C13.25 11.8349 13.25 11.8358 13.25 11.8368C13.25 11.8378 13.25 11.8388 13.25 11.8398C13.25 11.8408 13.25 11.8418 13.25 11.8428C13.25 11.8437 13.25 11.8447 13.25 11.8457C13.25 11.8467 13.25 11.8477 13.25 11.8487C13.25 11.8497 13.25 11.8506 13.25 11.8516C13.25 11.8526 13.25 11.8536 13.25 11.8546C13.25 11.8556 13.25 11.8565 13.25 11.8575C13.25 11.8585 13.25 11.8595 13.25 11.8605C13.25 11.8615 13.25 11.8625 13.25 11.8634C13.25 11.8644 13.25 11.8654 13.25 11.8664C13.25 11.8674 13.25 11.8684 13.25 11.8693C13.25 11.8703 13.25 11.8713 13.25 11.8723C13.25 11.8733 13.25 11.8742 13.25 11.8752C13.25 11.8762 13.25 11.8772 13.25 11.8782C13.25 11.8791 13.25 11.8801 13.25 11.8811C13.25 11.8821 13.25 11.8831 13.25 11.8841C13.25 11.885 13.25 11.886 13.25 11.887C13.25 11.888 13.25 11.889 13.25 11.8899C13.25 11.8909 13.25 11.8919 13.25 11.8929C13.25 11.8938 13.25 11.8948 13.25 11.8958C13.25 11.8968 13.25 11.8978 13.25 11.8987C13.25 11.8997 13.25 11.9007 13.25 11.9017C13.25 11.9026 13.25 11.9036 13.25 11.9046C13.25 11.9056 13.25 11.9066 13.25 11.9075C13.25 11.9085 13.25 11.9095 13.25 11.9105C13.25 11.9114 13.25 11.9124 13.25 11.9134C13.25 11.9144 13.25 11.9153 13.25 11.9163C13.25 11.9173 13.25 11.9183 13.25 11.9192C13.25 11.9202 13.25 11.9212 13.25 11.9222C13.25 11.9231 13.25 11.9241 13.25 11.9251C13.25 11.9261 13.25 11.927 13.25 11.928C13.25 11.929 13.25 11.9299 13.25 11.9309C13.25 11.9319 13.25 11.9329 13.25 11.9338C13.25 11.9348 13.25 11.9358 13.25 11.9367C13.25 11.9377 13.25 11.9387 13.25 11.9397C13.25 11.9406 13.25 11.9416 13.25 11.9426C13.25 11.9435 13.25 11.9445 13.25 11.9455C13.25 11.9465 13.25 11.9474 13.25 11.9484C13.25 11.9494 13.25 11.9503 13.25 11.9513C13.25 11.9523 13.25 11.9532 13.25 11.9542C13.25 11.9552 13.25 11.9561 13.25 11.9571C13.25 11.9581 13.25 11.9591 13.25 11.96C13.25 11.961 13.25 11.962 13.25 11.9629C13.25 11.9639 13.25 11.9649 13.25 11.9658C13.25 11.9668 13.25 11.9678 13.25 11.9687C13.25 11.9697 13.25 11.9707 13.25 11.9716C13.25 11.9726 13.25 11.9735 13.25 11.9745C13.25 11.9755 13.25 11.9764 13.25 11.9774C13.25 11.9784 13.25 11.9793 13.25 11.9803C13.25 11.9813 13.25 11.9822 13.25 11.9832C13.25 11.9842 13.25 11.9851 13.25 11.9861C13.25 11.9871 13.25 11.988 13.25 11.989C13.25 11.9899 13.25 11.9909 13.25 11.9919C13.25 11.9928 13.25 11.9938 13.25 11.9948C13.25 11.9957 13.25 11.9967 13.25 11.9976C13.25 11.9986 13.25 11.9996 13.25 12.0005H14.75C14.75 11.9996 14.75 11.9986 14.75 11.9976C14.75 11.9967 14.75 11.9957 14.75 11.9948C14.75 11.9938 14.75 11.9928 14.75 11.9919C14.75 11.9909 14.75 11.9899 14.75 11.989C14.75 11.988 14.75 11.9871 14.75 11.9861C14.75 11.9851 14.75 11.9842 14.75 11.9832C14.75 11.9822 14.75 11.9813 14.75 11.9803C14.75 11.9793 14.75 11.9784 14.75 11.9774C14.75 11.9764 14.75 11.9755 14.75 11.9745C14.75 11.9735 14.75 11.9726 14.75 11.9716C14.75 11.9707 14.75 11.9697 14.75 11.9687C14.75 11.9678 14.75 11.9668 14.75 11.9658C14.75 11.9649 14.75 11.9639 14.75 11.9629C14.75 11.962 14.75 11.961 14.75 11.96C14.75 11.9591 14.75 11.9581 14.75 11.9571C14.75 11.9561 14.75 11.9552 14.75 11.9542C14.75 11.9532 14.75 11.9523 14.75 11.9513C14.75 11.9503 14.75 11.9494 14.75 11.9484C14.75 11.9474 14.75 11.9465 14.75 11.9455C14.75 11.9445 14.75 11.9435 14.75 11.9426C14.75 11.9416 14.75 11.9406 14.75 11.9397C14.75 11.9387 14.75 11.9377 14.75 11.9367C14.75 11.9358 14.75 11.9348 14.75 11.9338C14.75 11.9329 14.75 11.9319 14.75 11.9309C14.75 11.9299 14.75 11.929 14.75 11.928C14.75 11.927 14.75 11.9261 14.75 11.9251C14.75 11.9241 14.75 11.9231 14.75 11.9222C14.75 11.9212 14.75 11.9202 14.75 11.9192C14.75 11.9183 14.75 11.9173 14.75 11.9163C14.75 11.9153 14.75 11.9144 14.75 11.9134C14.75 11.9124 14.75 11.9114 14.75 11.9105C14.75 11.9095 14.75 11.9085 14.75 11.9075C14.75 11.9066 14.75 11.9056 14.75 11.9046C14.75 11.9036 14.75 11.9026 14.75 11.9017C14.75 11.9007 14.75 11.8997 14.75 11.8987C14.75 11.8978 14.75 11.8968 14.75 11.8958C14.75 11.8948 14.75 11.8938 14.75 11.8929C14.75 11.8919 14.75 11.8909 14.75 11.8899C14.75 11.889 14.75 11.888 14.75 11.887C14.75 11.886 14.75 11.885 14.75 11.8841C14.75 11.8831 14.75 11.8821 14.75 11.8811C14.75 11.8801 14.75 11.8791 14.75 11.8782C14.75 11.8772 14.75 11.8762 14.75 11.8752C14.75 11.8742 14.75 11.8733 14.75 11.8723C14.75 11.8713 14.75 11.8703 14.75 11.8693C14.75 11.8684 14.75 11.8674 14.75 11.8664C14.75 11.8654 14.75 11.8644 14.75 11.8634C14.75 11.8625 14.75 11.8615 14.75 11.8605C14.75 11.8595 14.75 11.8585 14.75 11.8575C14.75 11.8565 14.75 11.8556 14.75 11.8546C14.75 11.8536 14.75 11.8526 14.75 11.8516C14.75 11.8506 14.75 11.8497 14.75 11.8487C14.75 11.8477 14.75 11.8467 14.75 11.8457C14.75 11.8447 14.75 11.8437 14.75 11.8428C14.75 11.8418 14.75 11.8408 14.75 11.8398C14.75 11.8388 14.75 11.8378 14.75 11.8368C14.75 11.8358 14.75 11.8349 14.75 11.8339C14.75 11.8329 14.75 11.8319 14.75 11.8309C14.75 11.8299 14.75 11.8289 14.75 11.8279C14.75 11.8269 14.75 11.826 14.75 11.825C14.75 11.824 14.75 11.823 14.75 11.822C14.75 11.821 14.75 11.82 14.75 11.819C14.75 11.818 14.75 11.817 14.75 11.8161C14.75 11.8151 14.75 11.8141 14.75 11.8131C14.75 11.8121 14.75 11.8111 14.75 11.8101C14.75 11.8091 14.75 11.8081 14.75 11.8071C14.75 11.8061 14.75 11.8051 14.75 11.8042C14.75 11.8032 14.75 11.8022 14.75 11.8012C14.75 11.8002 14.75 11.7992 14.75 11.7982C14.75 11.7972 14.75 11.7962 14.75 11.7952C14.75 11.7942 14.75 11.7932 14.75 11.7922C14.75 11.7912 14.75 11.7902 14.75 11.7892C14.75 11.7883 14.75 11.7873 14.75 11.7863C14.75 11.7853 14.75 11.7843 14.75 11.7833C14.75 11.7823 14.75 11.7813 14.75 11.7803C14.75 11.7793 14.75 11.7783 14.75 11.7773C14.75 11.7763 14.75 11.7753 14.75 11.7743C14.75 11.7733 14.75 11.7723 14.75 11.7713C14.75 11.7703 14.75 11.7693 14.75 11.7683C14.75 11.7673 14.75 11.7663 14.75 11.7653C14.75 11.7643 14.75 11.7633 14.75 11.7623C14.75 11.7613 14.75 11.7603 14.75 11.7593C14.75 11.7583 14.75 11.7573 14.75 11.7563C14.75 11.7553 14.75 11.7543 14.75 11.7533C14.75 11.7523 14.75 11.7513 14.75 11.7503C14.75 11.7493 14.75 11.7483 14.75 11.7473C14.75 11.7463 14.75 11.7453 14.75 11.7443C14.75 11.7433 14.75 11.7423 14.75 11.7413C14.75 11.7403 14.75 11.7393 14.75 11.7383C14.75 11.7373 14.75 11.7363 14.75 11.7353C14.75 11.7343 14.75 11.7333 14.75 11.7323C14.75 11.7313 14.75 11.7303 14.75 11.7293C14.75 11.7283 14.75 11.7273 14.75 11.7263C14.75 11.7253 14.75 11.7243 14.75 11.7233C14.75 11.7223 14.75 11.7212 14.75 11.7202C14.75 11.7192 14.75 11.7182 14.75 11.7172C14.75 11.7162 14.75 11.7152 14.75 11.7142C14.75 11.7132 14.75 11.7122 14.75 11.7112C14.75 11.7102 14.75 11.7092 14.75 11.7082C14.75 11.7072 14.75 11.7062 14.75 11.7051C14.75 11.7041 14.75 11.7031 14.75 11.7021C14.75 11.7011 14.75 11.7001 14.75 11.6991C14.75 11.6981 14.75 11.6971 14.75 11.6961C14.75 11.6951 14.75 11.6941 14.75 11.693C14.75 11.692 14.75 11.691 14.75 11.69C14.75 11.689 14.75 11.688 14.75 11.687C14.75 11.686 14.75 11.685 14.75 11.684C14.75 11.6829 14.75 11.6819 14.75 11.6809C14.75 11.6799 14.75 11.6789 14.75 11.6779C14.75 11.6769 14.75 11.6759 14.75 11.6749C14.75 11.6738 14.75 11.6728 14.75 11.6718C14.75 11.6708 14.75 11.6698 14.75 11.6688C14.75 11.6678 14.75 11.6668 14.75 11.6657C14.75 11.6647 14.75 11.6637 14.75 11.6627C14.75 11.6617 14.75 11.6607 14.75 11.6597C14.75 11.6586 14.75 11.6576 14.75 11.6566C14.75 11.6556 14.75 11.6546 14.75 11.6536C14.75 11.6526 14.75 11.6515 14.75 11.6505C14.75 11.6495 14.75 11.6485 14.75 11.6475C14.75 11.6465 14.75 11.6454 14.75 11.6444C14.75 11.6434 14.75 11.6424 14.75 11.6414C14.75 11.6404 14.75 11.6393 14.75 11.6383C14.75 11.6373 14.75 11.6363 14.75 11.6353C14.75 11.6343 14.75 11.6332 14.75 11.6322C14.75 11.6312 14.75 11.6302 14.75 11.6292C14.75 11.6282 14.75 11.6271 14.75 11.6261C14.75 11.6251 14.75 11.6241 14.75 11.6231C14.75 11.622 14.75 11.621 14.75 11.62C14.75 11.619 14.75 11.618 14.75 11.6169C14.75 11.6159 14.75 11.6149 14.75 11.6139C14.75 11.6129 14.75 11.6118 14.75 11.6108C14.75 11.6098 14.75 11.6088 14.75 11.6078C14.75 11.6067 14.75 11.6057 14.75 11.6047C14.75 11.6037 14.75 11.6026 14.75 11.6016C14.75 11.6006 14.75 11.5996 14.75 11.5986C14.75 11.5975 14.75 11.5965 14.75 11.5955C14.75 11.5945 14.75 11.5934 14.75 11.5924C14.75 11.5914 14.75 11.5904 14.75 11.5893C14.75 11.5883 14.75 11.5873 14.75 11.5863C14.75 11.5852 14.75 11.5842 14.75 11.5832C14.75 11.5822 14.75 11.5812 14.75 11.5801C14.75 11.5791 14.75 11.5781 14.75 11.577C14.75 11.576 14.75 11.575 14.75 11.574C14.75 11.5729 14.75 11.5719 14.75 11.5709C14.75 11.5699 14.75 11.5688 14.75 11.5678C14.75 11.5668 14.75 11.5658 14.75 11.5647C14.75 11.5637 14.75 11.5627 14.75 11.5616C14.75 11.5606 14.75 11.5596 14.75 11.5586C14.75 11.5575 14.75 11.5565 14.75 11.5555C14.75 11.5545 14.75 11.5534 14.75 11.5524C14.75 11.5514 14.75 11.5503 14.75 11.5493C14.75 11.5483 14.75 11.5472 14.75 11.5462C14.75 11.5452 14.75 11.5442 14.75 11.5431C14.75 11.5421 14.75 11.5411 14.75 11.54C14.75 11.539 14.75 11.538 14.75 11.5369C14.75 11.5359 14.75 11.5349 14.75 11.5338C14.75 11.5328 14.75 11.5318 14.75 11.5308C14.75 11.5297 14.75 11.5287 14.75 11.5277C14.75 11.5266 14.75 11.5256 14.75 11.5246C14.75 11.5235 14.75 11.5225 14.75 11.5215C14.75 11.5204 14.75 11.5194 14.75 11.5184C14.75 11.5173 14.75 11.5163 14.75 11.5153C14.75 11.5142 14.75 11.5132 14.75 11.5122C14.75 11.5111 14.75 11.5101 14.75 11.5091C14.75 11.508 14.75 11.507 14.75 11.5059C14.75 11.5049 14.75 11.5039 14.75 11.5028C14.75 11.5018 14.75 11.5008 14.75 11.4997C14.75 11.4987 14.75 11.4977 14.75 11.4966C14.75 11.4956 14.75 11.4945 14.75 11.4935C14.75 11.4925 14.75 11.4914 14.75 11.4904C14.75 11.4894 14.75 11.4883 14.75 11.4873C14.75 11.4863 14.75 11.4852 14.75 11.4842C14.75 11.4831 14.75 11.4821 14.75 11.4811C14.75 11.48 14.75 11.479 14.75 11.4779C14.75 11.4769 14.75 11.4759 14.75 11.4748C14.75 11.4738 14.75 11.4727 14.75 11.4717C14.75 11.4707 14.75 11.4696 14.75 11.4686C14.75 11.4675 14.75 11.4665 14.75 11.4655C14.75 11.4644 14.75 11.4634 14.75 11.4623C14.75 11.4613 14.75 11.4603 14.75 11.4592C14.75 11.4582 14.75 11.4571 14.75 11.4561C14.75 11.4551 14.75 11.454 14.75 11.453C14.75 11.4519 14.75 11.4509 14.75 11.4498C14.75 11.4488 14.75 11.4478 14.75 11.4467C14.75 11.4457 14.75 11.4446 14.75 11.4436C14.75 11.4425 14.75 11.4415 14.75 11.4405C14.75 11.4394 14.75 11.4384 14.75 11.4373C14.75 11.4363 14.75 11.4352 14.75 11.4342C14.75 11.4331 14.75 11.4321 14.75 11.4311C14.75 11.43 14.75 11.429 14.75 11.4279C14.75 11.4269 14.75 11.4258 14.75 11.4248C14.75 11.4237 14.75 11.4227 14.75 11.4216C14.75 11.4206 14.75 11.4196 14.75 11.4185C14.75 11.4175 14.75 11.4164 14.75 11.4154C14.75 11.4143 14.75 11.4133 14.75 11.4122C14.75 11.4112 14.75 11.4101 14.75 11.4091C14.75 11.408 14.75 11.407 14.75 11.4059C14.75 11.4049 14.75 11.4038 14.75 11.4028C14.75 11.4017 14.75 11.4007 14.75 11.3996C14.75 11.3986 14.75 11.3975 14.75 11.3965C14.75 11.3954 14.75 11.3944 14.75 11.3933C14.75 11.3923 14.75 11.3912 14.75 11.3902C14.75 11.3891 14.75 11.3881 14.75 11.387C14.75 11.386 14.75 11.3849 14.75 11.3839C14.75 11.3828 14.75 11.3818 14.75 11.3807C14.75 11.3797 14.75 11.3786 14.75 11.3776C14.75 11.3765 14.75 11.3755 14.75 11.3744C14.75 11.3734 14.75 11.3723 14.75 11.3713C14.75 11.3702 14.75 11.3692 14.75 11.3681C14.75 11.3671 14.75 11.366 14.75 11.365C14.75 11.3639 14.75 11.3629 14.75 11.3618C14.75 11.3607 14.75 11.3597 14.75 11.3586C14.75 11.3576 14.75 11.3565 14.75 11.3555C14.75 11.3544 14.75 11.3534 14.75 11.3523C14.75 11.3513 14.75 11.3502 14.75 11.3491C14.75 11.3481 14.75 11.347 14.75 11.346C14.75 11.3449 14.75 11.3439 14.75 11.3428C14.75 11.3418 14.75 11.3407 14.75 11.3396C14.75 11.3386 14.75 11.3375 14.75 11.3365C14.75 11.3354 14.75 11.3344 14.75 11.3333C14.75 11.3322 14.75 11.3312 14.75 11.3301C14.75 11.3291 14.75 11.328 14.75 11.327C14.75 11.3259 14.75 11.3248 14.75 11.3238C14.75 11.3227 14.75 11.3217 14.75 11.3206C14.75 11.3195 14.75 11.3185 14.75 11.3174C14.75 11.3164 14.75 11.3153 14.75 11.3142C14.75 11.3132 14.75 11.3121 14.75 11.3111C14.75 11.31 14.75 11.3089 14.75 11.3079C14.75 11.3068 14.75 11.3058 14.75 11.3047C14.75 11.3036 14.75 11.3026 14.75 11.3015C14.75 11.3005 14.75 11.2994 14.75 11.2983C14.75 11.2973 14.75 11.2962 14.75 11.2952C14.75 11.2941 14.75 11.293 14.75 11.292C14.75 11.2909 14.75 11.2898 14.75 11.2888C14.75 11.2877 14.75 11.2867 14.75 11.2856C14.75 11.2845 14.75 11.2835 14.75 11.2824C14.75 11.2813 14.75 11.2803 14.75 11.2792C14.75 11.2782 14.75 11.2771 14.75 11.276C14.75 11.275 14.75 11.2739 14.75 11.2728C14.75 11.2718 14.75 11.2707 14.75 11.2696C14.75 11.2686 14.75 11.2675 14.75 11.2664C14.75 11.2654 14.75 11.2643 14.75 11.2632C14.75 11.2622 14.75 11.2611 14.75 11.26C14.75 11.259 14.75 11.2579 14.75 11.2569C14.75 11.2558 14.75 11.2547 14.75 11.2537C14.75 11.2526 14.75 11.2515 14.75 11.2505C14.75 11.2494 14.75 11.2483 14.75 11.2472C14.75 11.2462 14.75 11.2451 14.75 11.244C14.75 11.243 14.75 11.2419 14.75 11.2408C14.75 11.2398 14.75 11.2387 14.75 11.2376C14.75 11.2366 14.75 11.2355 14.75 11.2344C14.75 11.2334 14.75 11.2323 14.75 11.2312C14.75 11.2302 14.75 11.2291 14.75 11.228C14.75 11.2269 14.75 11.2259 14.75 11.2248C14.75 11.2237 14.75 11.2227 14.75 11.2216C14.75 11.2205 14.75 11.2195 14.75 11.2184C14.75 11.2173 14.75 11.2162 14.75 11.2152C14.75 11.2141 14.75 11.213 14.75 11.212C14.75 11.2109 14.75 11.2098 14.75 11.2087C14.75 11.2077 14.75 11.2066 14.75 11.2055C14.75 11.2045 14.75 11.2034 14.75 11.2023C14.75 11.2012 14.75 11.2002 14.75 11.1991C14.75 11.198 14.75 11.1969 14.75 11.1959C14.75 11.1948 14.75 11.1937 14.75 11.1926C14.75 11.1916 14.75 11.1905 14.75 11.1894C14.75 11.1884 14.75 11.1873 14.75 11.1862C14.75 11.1851 14.75 11.1841 14.75 11.183C14.75 11.1819 14.75 11.1808 14.75 11.1798C14.75 11.1787 14.75 11.1776 14.75 11.1765C14.75 11.1755 14.75 11.1744 14.75 11.1733C14.75 11.1722 14.75 11.1711 14.75 11.1701C14.75 11.169 14.75 11.1679 14.75 11.1668C14.75 11.1658 14.75 11.1647 14.75 11.1636C14.75 11.1625 14.75 11.1615 14.75 11.1604C14.75 11.1593 14.75 11.1582 14.75 11.1571C14.75 11.1561 14.75 11.155 14.75 11.1539C14.75 11.1528 14.75 11.1518 14.75 11.1507C14.75 11.1496 14.75 11.1485 14.75 11.1474C14.75 11.1464 14.75 11.1453 14.75 11.1442C14.75 11.1431 14.75 11.142 14.75 11.141C14.75 11.1399 14.75 11.1388 14.75 11.1377C14.75 11.1367 14.75 11.1356 14.75 11.1345C14.75 11.1334 14.75 11.1323 14.75 11.1312C14.75 11.1302 14.75 11.1291 14.75 11.128C14.75 11.1269 14.75 11.1258 14.75 11.1248C14.75 11.1237 14.75 11.1226 14.75 11.1215C14.75 11.1204 14.75 11.1194 14.75 11.1183C14.75 11.1172 14.75 11.1161 14.75 11.115C14.75 11.1139 14.75 11.1129 14.75 11.1118C14.75 11.1107 14.75 11.1096 14.75 11.1085C14.75 11.1074 14.75 11.1064 14.75 11.1053C14.75 11.1042 14.75 11.1031 14.75 11.102C14.75 11.1009 14.75 11.0999 14.75 11.0988C14.75 11.0977 14.75 11.0966 14.75 11.0955C14.75 11.0944 14.75 11.0934 14.75 11.0923C14.75 11.0912 14.75 11.0901 14.75 11.089C14.75 11.0879 14.75 11.0868 14.75 11.0858C14.75 11.0847 14.75 11.0836 14.75 11.0825C14.75 11.0814 14.75 11.0803 14.75 11.0792C14.75 11.0782 14.75 11.0771 14.75 11.076C14.75 11.0749 14.75 11.0738 14.75 11.0727C14.75 11.0716 14.75 11.0706 14.75 11.0695C14.75 11.0684 14.75 11.0673 14.75 11.0662C14.75 11.0651 14.75 11.064 14.75 11.0629C14.75 11.0618 14.75 11.0608 14.75 11.0597C14.75 11.0586 14.75 11.0575 14.75 11.0564C14.75 11.0553 14.75 11.0542 14.75 11.0531C14.75 11.0521 14.75 11.051 14.75 11.0499C14.75 11.0488 14.75 11.0477 14.75 11.0466C14.75 11.0455 14.75 11.0444 14.75 11.0433C14.75 11.0422 14.75 11.0412 14.75 11.0401C14.75 11.039 14.75 11.0379 14.75 11.0368C14.75 11.0357 14.75 11.0346 14.75 11.0335C14.75 11.0324 14.75 11.0313 14.75 11.0302C14.75 11.0292 14.75 11.0281 14.75 11.027C14.75 11.0259 14.75 11.0248 14.75 11.0237C14.75 11.0226 14.75 11.0215 14.75 11.0204C14.75 11.0193 14.75 11.0182 14.75 11.0171C14.75 11.016 14.75 11.015 14.75 11.0139C14.75 11.0128 14.75 11.0117 14.75 11.0106C14.75 11.0095 14.75 11.0084 14.75 11.0073C14.75 11.0062 14.75 11.0051 14.75 11.004C14.75 11.0029 14.75 11.0018 14.75 11.0007C14.75 10.9996 14.75 10.9985 14.75 10.9975C14.75 10.9964 14.75 10.9953 14.75 10.9942C14.75 10.9931 14.75 10.992 14.75 10.9909C14.75 10.9898 14.75 10.9887 14.75 10.9876C14.75 10.9865 14.75 10.9854 14.75 10.9843C14.75 10.9832 14.75 10.9821 14.75 10.981C14.75 10.9799 14.75 10.9788 14.75 10.9777C14.75 10.9766 14.75 10.9755 14.75 10.9744C14.75 10.9733 14.75 10.9722 14.75 10.9711C14.75 10.97 14.75 10.9689 14.75 10.9679C14.75 10.9668 14.75 10.9657 14.75 10.9646C14.75 10.9635 14.75 10.9624 14.75 10.9613C14.75 10.9602 14.75 10.9591 14.75 10.958C14.75 10.9569 14.75 10.9558 14.75 10.9547C14.75 10.9536 14.75 10.9525 14.75 10.9514C14.75 10.9503 14.75 10.9492 14.75 10.9481C14.75 10.947 14.75 10.9459 14.75 10.9448C14.75 10.9437 14.75 10.9426 14.75 10.9415C14.75 10.9404 14.75 10.9393 14.75 10.9382C14.75 10.9371 14.75 10.936 14.75 10.9349C14.75 10.9338 14.75 10.9327 14.75 10.9316C14.75 10.9305 14.75 10.9294 14.75 10.9283C14.75 10.9272 14.75 10.9261 14.75 10.925C14.75 10.9238 14.75 10.9227 14.75 10.9216C14.75 10.9205 14.75 10.9194 14.75 10.9183C14.75 10.9172 14.75 10.9161 14.75 10.915C14.75 10.9139 14.75 10.9128 14.75 10.9117C14.75 10.9106 14.75 10.9095 14.75 10.9084C14.75 10.9073 14.75 10.9062 14.75 10.9051C14.75 10.904 14.75 10.9029 14.75 10.9018C14.75 10.9007 14.75 10.8996 14.75 10.8985C14.75 10.8974 14.75 10.8963 14.75 10.8952C14.75 10.894 14.75 10.8929 14.75 10.8918C14.75 10.8907 14.75 10.8896 14.75 10.8885C14.75 10.8874 14.75 10.8863 14.75 10.8852C14.75 10.8841 14.75 10.883 14.75 10.8819C14.75 10.8808 14.75 10.8797 14.75 10.8786C14.75 10.8775 14.75 10.8764 14.75 10.8752C14.75 10.8741 14.75 10.873 14.75 10.8719C14.75 10.8708 14.75 10.8697 14.75 10.8686C14.75 10.8675 14.75 10.8664 14.75 10.8653C14.75 10.8642 14.75 10.8631 14.75 10.862C14.75 10.8608 14.75 10.8597 14.75 10.8586C14.75 10.8575 14.75 10.8564 14.75 10.8553C14.75 10.8542 14.75 10.8531 14.75 10.852C14.75 10.8509 14.75 10.8498 14.75 10.8486C14.75 10.8475 14.75 10.8464 14.75 10.8453C14.75 10.8442 14.75 10.8431 14.75 10.842C14.75 10.8409 14.75 10.8398 14.75 10.8387C14.75 10.8375 14.75 10.8364 14.75 10.8353C14.75 10.8342 14.75 10.8331 14.75 10.832C14.75 10.8309 14.75 10.8298 14.75 10.8287C14.75 10.8275 14.75 10.8264 14.75 10.8253C14.75 10.8242 14.75 10.8231 14.75 10.822C14.75 10.8209 14.75 10.8198 14.75 10.8187C14.75 10.8175 14.75 10.8164 14.75 10.8153C14.75 10.8142 14.75 10.8131 14.75 10.812C14.75 10.8109 14.75 10.8097 14.75 10.8086C14.75 10.8075 14.75 10.8064 14.75 10.8053C14.75 10.8042 14.75 10.8031 14.75 10.802C14.75 10.8008 14.75 10.7997 14.75 10.7986C14.75 10.7975 14.75 10.7964 14.75 10.7953C14.75 10.7942 14.75 10.793 14.75 10.7919C14.75 10.7908 14.75 10.7897 14.75 10.7886C14.75 10.7875 14.75 10.7863 14.75 10.7852C14.75 10.7841 14.75 10.783 14.75 10.7819C14.75 10.7808 14.75 10.7797 14.75 10.7785C14.75 10.7774 14.75 10.7763 14.75 10.7752C14.75 10.7741 14.75 10.773 14.75 10.7718C14.75 10.7707 14.75 10.7696 14.75 10.7685C14.75 10.7674 14.75 10.7663 14.75 10.7651C14.75 10.764 14.75 10.7629 14.75 10.7618C14.75 10.7607 14.75 10.7596 14.75 10.7584C14.75 10.7573 14.75 10.7562 14.75 10.7551C14.75 10.754 14.75 10.7528 14.75 10.7517C14.75 10.7506 14.75 10.7495 14.75 10.7484C14.75 10.7472 14.75 10.7461 14.75 10.745C14.75 10.7439 14.75 10.7428 14.75 10.7417C14.75 10.7405 14.75 10.7394 14.75 10.7383C14.75 10.7372 14.75 10.7361 14.75 10.7349C14.75 10.7338 14.75 10.7327 14.75 10.7316C14.75 10.7305 14.75 10.7293 14.75 10.7282C14.75 10.7271 14.75 10.726 14.75 10.7249C14.75 10.7237 14.75 10.7226 14.75 10.7215C14.75 10.7204 14.75 10.7192 14.75 10.7181C14.75 10.717 14.75 10.7159 14.75 10.7148C14.75 10.7136 14.75 10.7125 14.75 10.7114C14.75 10.7103 14.75 10.7091 14.75 10.708C14.75 10.7069 14.75 10.7058 14.75 10.7047C14.75 10.7035 14.75 10.7024 14.75 10.7013C14.75 10.7002 14.75 10.699 14.75 10.6979C14.75 10.6968 14.75 10.6957 14.75 10.6945C14.75 10.6934 14.75 10.6923 14.75 10.6912C14.75 10.6901 14.75 10.6889 14.75 10.6878C14.75 10.6867 14.75 10.6856 14.75 10.6844C14.75 10.6833 14.75 10.6822 14.75 10.6811C14.75 10.6799 14.75 10.6788 14.75 10.6777C14.75 10.6766 14.75 10.6754 14.75 10.6743C14.75 10.6732 14.75 10.6721 14.75 10.6709C14.75 10.6698 14.75 10.6687 14.75 10.6676C14.75 10.6664 14.75 10.6653 14.75 10.6642C14.75 10.6631 14.75 10.6619 14.75 10.6608C14.75 10.6597 14.75 10.6585 14.75 10.6574C14.75 10.6563 14.75 10.6552 14.75 10.654C14.75 10.6529 14.75 10.6518 14.75 10.6507C14.75 10.6495 14.75 10.6484 14.75 10.6473C14.75 10.6461 14.75 10.645 14.75 10.6439C14.75 10.6428 14.75 10.6416 14.75 10.6405C14.75 10.6394 14.75 10.6382 14.75 10.6371C14.75 10.636 14.75 10.6349 14.75 10.6337C14.75 10.6326 14.75 10.6315 14.75 10.6303C14.75 10.6292 14.75 10.6281 14.75 10.627C14.75 10.6258 14.75 10.6247 14.75 10.6236C14.75 10.6224 14.75 10.6213 14.75 10.6202C14.75 10.6191 14.75 10.6179 14.75 10.6168C14.75 10.6157 14.75 10.6145 14.75 10.6134C14.75 10.6123 14.75 10.6111 14.75 10.61C14.75 10.6089 14.75 10.6077 14.75 10.6066C14.75 10.6055 14.75 10.6044 14.75 10.6032C14.75 10.6021 14.75 10.601 14.75 10.5998C14.75 10.5987 14.75 10.5976 14.75 10.5964C14.75 10.5953 14.75 10.5942 14.75 10.593C14.75 10.5919 14.75 10.5908 14.75 10.5896C14.75 10.5885 14.75 10.5874 14.75 10.5862C14.75 10.5851 14.75 10.584 14.75 10.5828C14.75 10.5817 14.75 10.5806 14.75 10.5794C14.75 10.5783 14.75 10.5772 14.75 10.576C14.75 10.5749 14.75 10.5738 14.75 10.5726C14.75 10.5715 14.75 10.5704 14.75 10.5692C14.75 10.5681 14.75 10.567 14.75 10.5658C14.75 10.5647 14.75 10.5636 14.75 10.5624C14.75 10.5613 14.75 10.5602 14.75 10.559C14.75 10.5579 14.75 10.5568 14.75 10.5556C14.75 10.5545 14.75 10.5533 14.75 10.5522C14.75 10.5511 14.75 10.5499 14.75 10.5488C14.75 10.5477 14.75 10.5465 14.75 10.5454C14.75 10.5443 14.75 10.5431 14.75 10.542C14.75 10.5409 14.75 10.5397 14.75 10.5386C14.75 10.5374 14.75 10.5363 14.75 10.5352C14.75 10.534 14.75 10.5329 14.75 10.5318C14.75 10.5306 14.75 10.5295 14.75 10.5283C14.75 10.5272 14.75 10.5261 14.75 10.5249C14.75 10.5238 14.75 10.5227 14.75 10.5215C14.75 10.5204 14.75 10.5192 14.75 10.5181C14.75 10.517 14.75 10.5158 14.75 10.5147C14.75 10.5136 14.75 10.5124 14.75 10.5113C14.75 10.5101 14.75 10.509 14.75 10.5079C14.75 10.5067 14.75 10.5056 14.75 10.5044C14.75 10.5033 14.75 10.5022 14.75 10.501C14.75 10.4999 14.75 10.4987 14.75 10.4976C14.75 10.4965 14.75 10.4953 14.75 10.4942C14.75 10.493 14.75 10.4919 14.75 10.4908C14.75 10.4896 14.75 10.4885 14.75 10.4873C14.75 10.4862 14.75 10.4851 14.75 10.4839C14.75 10.4828 14.75 10.4816 14.75 10.4805C14.75 10.4794 14.75 10.4782 14.75 10.4771C14.75 10.4759 14.75 10.4748 14.75 10.4736C14.75 10.4725 14.75 10.4714 14.75 10.4702C14.75 10.4691 14.75 10.4679 14.75 10.4668C14.75 10.4657 14.75 10.4645 14.75 10.4634C14.75 10.4622 14.75 10.4611 14.75 10.4599C14.75 10.4588 14.75 10.4577 14.75 10.4565C14.75 10.4554 14.75 10.4542 14.75 10.4531C14.75 10.4519 14.75 10.4508 14.75 10.4496C14.75 10.4485 14.75 10.4474 14.75 10.4462C14.75 10.4451 14.75 10.4439 14.75 10.4428C14.75 10.4416 14.75 10.4405 14.75 10.4394C14.75 10.4382 14.75 10.4371 14.75 10.4359C14.75 10.4348 14.75 10.4336 14.75 10.4325C14.75 10.4313 14.75 10.4302 14.75 10.429C14.75 10.4279 14.75 10.4268 14.75 10.4256C14.75 10.4245 14.75 10.4233 14.75 10.4222C14.75 10.421 14.75 10.4199 14.75 10.4187C14.75 10.4176 14.75 10.4164 14.75 10.4153C14.75 10.4142 14.75 10.413 14.75 10.4119C14.75 10.4107 14.75 10.4096 14.75 10.4084C14.75 10.4073 14.75 10.4061 14.75 10.405C14.75 10.4038 14.75 10.4027 14.75 10.4015C14.75 10.4004 14.75 10.3992 14.75 10.3981C14.75 10.397 14.75 10.3958 14.75 10.3947C14.75 10.3935 14.75 10.3924 14.75 10.3912C14.75 10.3901 14.75 10.3889 14.75 10.3878C14.75 10.3866 14.75 10.3855 14.75 10.3843C14.75 10.3832 14.75 10.382 14.75 10.3809C14.75 10.3797 14.75 10.3786 14.75 10.3774C14.75 10.3763 14.75 10.3751 14.75 10.374C14.75 10.3728 14.75 10.3717 14.75 10.3705C14.75 10.3694 14.75 10.3682 14.75 10.3671C14.75 10.3659 14.75 10.3648 14.75 10.3636H13.25ZM12 13.25H3.99998V14.75H12V13.25ZM2.75001 12.0006C2.75001 11.5086 2.75 10.9525 2.75 10.3636H1.25C1.25 10.9525 1.25001 11.5086 1.25001 12.0006L2.75001 12.0006ZM2.75 10.3636V6H1.25V10.3636H2.75ZM3.99998 13.25C3.30939 13.25 2.75002 12.6907 2.75001 12.0006L1.25001 12.0006C1.25004 13.5196 2.4815 14.75 3.99998 14.75V13.25ZM13.25 12.0005C13.25 12.6906 12.6906 13.25 12 13.25V14.75C13.5185 14.75 14.75 13.5196 14.75 12.0005H13.25Z" fill="#0062FF"/>
<path fill-rule="evenodd" clip-rule="evenodd" d="M3.2 2H12.8C13.4627 2 14 2.59695 14 3.33333V6H2V3.33333C2 2.59695 2.53726 2 3.2 2Z" stroke="#0062FF" stroke-width="1.5"/>
<path d="M11 1V3" stroke="#0062FF" stroke-width="1.5" stroke-linecap="round" stroke-linejoin="round"/>
<path d="M5.5 1V3" stroke="#0062FF" stroke-width="1.5" stroke-linecap="round" stroke-linejoin="round"/>
</svg>
