<svg width="21" height="20" viewBox="0 0 21 20" fill="none" xmlns="http://www.w3.org/2000/svg">
<path d="M15.7497 3.33333H5.74967C4.8292 3.33333 4.08301 4.07952 4.08301 4.99999V6.66666C4.08301 7.58714 4.8292 8.33333 5.74967 8.33333H15.7497C16.6701 8.33333 17.4163 7.58714 17.4163 6.66666V4.99999C17.4163 4.07952 16.6701 3.33333 15.7497 3.33333Z" stroke="#0062FF" stroke-width="1.5" stroke-linecap="round" stroke-linejoin="round"/>
<path d="M15.7497 11.6667H5.74967C4.8292 11.6667 4.08301 12.4129 4.08301 13.3333V15C4.08301 15.9205 4.8292 16.6667 5.74967 16.6667H15.7497C16.6701 16.6667 17.4163 15.9205 17.4163 15V13.3333C17.4163 12.4129 16.6701 11.6667 15.7497 11.6667Z" stroke="#0062FF" stroke-width="1.5" stroke-linecap="round" stroke-linejoin="round"/>
</svg>
