<svg width="21" height="20" viewBox="0 0 21 20" fill="none" xmlns="http://www.w3.org/2000/svg">
<path d="M3.58301 3.33333H8.58301M11.9163 3.33333H16.9163M5.24967 6.66666H6.91634C7.83682 6.66666 8.58301 7.41285 8.58301 8.33333V15C8.58301 15.9205 7.83682 16.6667 6.91634 16.6667H5.24967C4.3292 16.6667 3.58301 15.9205 3.58301 15V8.33333C3.58301 7.41285 4.3292 6.66666 5.24967 6.66666ZM13.583 6.66666H15.2497C16.1701 6.66666 16.9163 7.41285 16.9163 8.33333V9.99999C16.9163 10.9205 16.1701 11.6667 15.2497 11.6667H13.583C12.6625 11.6667 11.9163 10.9205 11.9163 9.99999V8.33333C11.9163 7.41285 12.6625 6.66666 13.583 6.66666Z" stroke="#808D9E" stroke-width="1.5" stroke-linecap="round" stroke-linejoin="round"/>
</svg>
