<svg width="22" height="22" viewBox="0 0 22 22" fill="none" xmlns="http://www.w3.org/2000/svg">
<path d="M0.75 2C0.75 1.30964 1.30964 0.75 2 0.75H8C8.69036 0.75 9.25 1.30964 9.25 2V10C9.25 10.6904 8.69036 11.25 8 11.25H2C1.30964 11.25 0.75 10.6904 0.75 10V2Z" fill="white" stroke="#0062FF" stroke-width="1.5"/>
<path d="M12.75 2C12.75 1.30964 13.3096 0.75 14 0.75H20C20.6904 0.75 21.25 1.30964 21.25 2V6C21.25 6.69036 20.6904 7.25 20 7.25H14C13.3096 7.25 12.75 6.69036 12.75 6V2Z" fill="white" stroke="#0062FF" stroke-width="1.5"/>
<path d="M0.75 16C0.75 15.3096 1.30964 14.75 2 14.75H8C8.69036 14.75 9.25 15.3096 9.25 16V20C9.25 20.6904 8.69036 21.25 8 21.25H2C1.30964 21.25 0.75 20.6904 0.75 20V16Z" fill="white" stroke="#0062FF" stroke-width="1.5"/>
<path d="M12.75 12C12.75 11.3096 13.3096 10.75 14 10.75H20C20.6904 10.75 21.25 11.3096 21.25 12V20C21.25 20.6904 20.6904 21.25 20 21.25H14C13.3096 21.25 12.75 20.6904 12.75 20V12Z" fill="white" stroke="#0062FF" stroke-width="1.5"/>
</svg>
