<svg width="24" height="24" viewBox="0 0 24 24" fill="none" xmlns="http://www.w3.org/2000/svg">
<path d="M19 6.22222V3.05556C19 2.7756 18.8784 2.50712 18.662 2.30917C18.4457 2.11121 18.1522 2 17.8462 2H5.15385C4.84783 2 4.55434 2.11121 4.33795 2.30917C4.12156 2.50712 4 2.7756 4 3.05556V19.9444C4 20.2244 4.12156 20.4929 4.33795 20.6908C4.55434 20.8888 4.84783 21 5.15385 21H14.3846H17.4167C18.2911 21 19 20.2911 19 19.4167V19.4167V17.8333" stroke="#7E8CA0" stroke-width="1.5" stroke-linecap="round" stroke-linejoin="round"/>
<path d="M3 8H5M3 12H5M3 16H5" stroke="#7E8CA0" stroke-width="1.5" stroke-linecap="round" stroke-linejoin="round"/>
<path d="M19.0916 9.006L12.7981 13.5624L12.1728 16.4843L15.1438 16.8024L21.4373 12.246C21.6758 12.0734 21.8427 11.8225 21.9013 11.5485C21.96 11.2745 21.9055 10.9999 21.75 10.7851L20.5771 9.16509C20.4216 8.95026 20.1777 8.81281 19.8991 8.78298C19.6206 8.75314 19.3301 8.83337 19.0916 9.006Z" stroke="#7E8CA0" stroke-width="1.5" stroke-linecap="round" stroke-linejoin="round"/>
</svg>
