<svg width="18" height="17" viewBox="0 0 18 17" fill="none" xmlns="http://www.w3.org/2000/svg">
<path d="M9.00033 15.3333L6.25033 12.5833H4.41699C3.68765 12.5833 2.98817 12.2936 2.47245 11.7779C1.95672 11.2621 1.66699 10.5627 1.66699 9.83333V4.33333C1.66699 3.60398 1.95672 2.90451 2.47245 2.38878C2.98817 1.87306 3.68765 1.58333 4.41699 1.58333H13.5837C14.313 1.58333 15.0125 1.87306 15.5282 2.38878C16.0439 2.90451 16.3337 3.60398 16.3337 4.33333V9.83333C16.3337 10.5627 16.0439 11.2621 15.5282 11.7779C15.0125 12.2936 14.313 12.5833 13.5837 12.5833H11.7503L9.00033 15.3333Z" stroke="#0F172A" stroke-width="1.5" stroke-linecap="round" stroke-linejoin="round"/>
<path d="M5.33398 5.25H12.6673" stroke="#0F172A" stroke-width="1.5" stroke-linecap="round" stroke-linejoin="round"/>
<path d="M5.33398 8.91666H10.834" stroke="#0F172A" stroke-width="1.5" stroke-linecap="round" stroke-linejoin="round"/>
</svg>
