<svg width="20" height="20" viewBox="0 0 20 20" fill="none" xmlns="http://www.w3.org/2000/svg">
<path d="M7.49967 5.83334H4.99967C4.55765 5.83334 4.13372 6.00893 3.82116 6.32149C3.5086 6.63405 3.33301 7.05797 3.33301 7.5V15C3.33301 15.442 3.5086 15.866 3.82116 16.1785C4.13372 16.4911 4.55765 16.6667 4.99967 16.6667H12.4997C12.9417 16.6667 13.3656 16.4911 13.6782 16.1785C13.9907 15.866 14.1663 15.442 14.1663 15V12.5" stroke="white" stroke-width="1.5" stroke-linecap="round" stroke-linejoin="round"/>
<path d="M7.5 12.5H10L17.0833 5.41667C17.4149 5.08515 17.6011 4.63551 17.6011 4.16667C17.6011 3.69783 17.4149 3.24819 17.0833 2.91667C16.7518 2.58515 16.3022 2.3989 15.8333 2.3989C15.3645 2.3989 14.9149 2.58515 14.5833 2.91667L7.5 10V12.5Z" stroke="white" stroke-width="1.5" stroke-linecap="round" stroke-linejoin="round"/>
<path d="M13.333 4.16667L15.833 6.66667" stroke="white" stroke-width="1.5" stroke-linecap="round" stroke-linejoin="round"/>
</svg>
