<svg width="22" height="22" viewBox="0 0 22 22" fill="none" xmlns="http://www.w3.org/2000/svg">
<path d="M10.9993 12.8333C12.0119 12.8333 12.8327 12.0125 12.8327 11C12.8327 9.98747 12.0119 9.16666 10.9993 9.16666C9.98683 9.16666 9.16602 9.98747 9.16602 11C9.16602 12.0125 9.98683 12.8333 10.9993 12.8333Z" stroke="#0F172A" stroke-width="1.5" stroke-linecap="round" stroke-linejoin="round"/>
<path d="M10.9997 17.4167C7.33301 17.4167 4.27776 15.2781 1.83301 11C4.27776 6.72191 7.33301 4.58333 10.9997 4.58333C14.6663 4.58333 17.7216 6.72191 20.1663 11C19.7813 11.6747 19.3798 12.2962 18.9646 12.8636" stroke="#0F172A" stroke-width="1.5" stroke-linecap="round" stroke-linejoin="round"/>
<path d="M13.75 17.4167L15.5833 19.25L19.25 15.5833" stroke="#0F172A" stroke-width="1.5" stroke-linecap="round" stroke-linejoin="round"/>
</svg>
